<svg width="25" height="25" viewBox="0 0 25 25" fill="none" xmlns="http://www.w3.org/2000/svg">
<path d="M1.94444 25L10.6944 16.25C11.3889 16.8056 12.1875 17.2454 13.0903 17.5694C13.9931 17.8935 14.9537 18.0556 15.9722 18.0556C18.4954 18.0556 20.6306 17.1815 22.3778 15.4333C24.125 13.6852 24.9991 11.55 25 9.02778C25 6.50463 24.1259 4.36944 22.3778 2.62222C20.6296 0.875 18.4944 0.000925926 15.9722 0C13.4491 0 11.3134 0.874074 9.56528 2.62222C7.81713 4.37037 6.94352 6.50556 6.94445 9.02778C6.94445 10.0463 7.10648 11.0069 7.43056 11.9097C7.75463 12.8125 8.19445 13.6111 8.75 14.3056L9.53674e-07 23.0556L1.94444 25ZM15.9722 15.2778C14.2361 15.2778 12.7602 14.6704 11.5444 13.4556C10.3287 12.2407 9.7213 10.7648 9.72222 9.02778C9.72222 7.29167 10.3296 5.8162 11.5444 4.60139C12.7593 3.38657 14.2352 2.7787 15.9722 2.77778C17.7083 2.77778 19.1838 3.38565 20.3986 4.60139C21.6134 5.81713 22.2213 7.29259 22.2222 9.02778C22.2222 10.7639 21.6144 12.2398 20.3986 13.4556C19.1829 14.6713 17.7074 15.2787 15.9722 15.2778Z" fill="black" fill-opacity="0.5"/>
</svg>
